<svg width="32" height="32" viewBox="0 0 32 32" fill="none" xmlns="http://www.w3.org/2000/svg">
  <defs>
    <linearGradient id="grid90" x1="0%" y1="0%" x2="100%" y2="100%">
      <stop offset="0%" style="stop-color:#8B5CF6;stop-opacity:1" />
      <stop offset="50%" style="stop-color:#06B6D4;stop-opacity:1" />
      <stop offset="100%" style="stop-color:#F59E0B;stop-opacity:1" />
    </linearGradient>
    <filter id="glow">
      <feGaussianBlur stdDeviation="1" result="coloredBlur"/>
      <feMerge> 
        <feMergeNode in="coloredBlur"/>
        <feMergeNode in="SourceGraphic"/>
      </feMerge>
    </filter>
  </defs>
  
  <!-- Background -->
  <rect width="32" height="32" rx="6" fill="#0F0F23"/>
  
  <!-- Grid pattern -->
  <g stroke="url(#grid90)" stroke-width="0.5" fill="none" opacity="0.3">
    <line x1="8" y1="0" x2="8" y2="32"/>
    <line x1="16" y1="0" x2="16" y2="32"/>
    <line x1="24" y1="0" x2="24" y2="32"/>
    <line x1="0" y1="8" x2="32" y2="8"/>
    <line x1="0" y1="16" x2="32" y2="16"/>
    <line x1="0" y1="24" x2="32" y2="24"/>
  </g>
  
  <!-- Central glowing squares -->
  <rect x="10" y="6" width="4" height="4" rx="1" fill="url(#grid90)" filter="url(#glow)" opacity="0.9"/>
  <rect x="18" y="6" width="4" height="4" rx="1" fill="url(#grid90)" filter="url(#glow)" opacity="0.7"/>
  <rect x="6" y="14" width="4" height="4" rx="1" fill="url(#grid90)" filter="url(#glow)" opacity="0.8"/>
  <rect x="14" y="14" width="4" height="4" rx="1" fill="url(#grid90)" filter="url(#glow)" opacity="1"/>
  <rect x="22" y="14" width="4" height="4" rx="1" fill="url(#grid90)" filter="url(#glow)" opacity="0.6"/>
  <rect x="10" y="22" width="4" height="4" rx="1" fill="url(#grid90)" filter="url(#glow)" opacity="0.5"/>
  <rect x="18" y="22" width="4" height="4" rx="1" fill="url(#grid90)" filter="url(#glow)" opacity="0.4"/>
  
  <!-- Sparkle effects -->
  <circle cx="26" cy="8" r="1" fill="#F59E0B" opacity="0.8"/>
  <circle cx="6" cy="26" r="0.5" fill="#06B6D4" opacity="0.6"/>
  <circle cx="28" cy="28" r="0.5" fill="#8B5CF6" opacity="0.7"/>
</svg>